<svg width="556" height="352" viewBox="0 0 556 352" fill="none" xmlns="http://www.w3.org/2000/svg">
<g opacity="0.32">
<circle cx="26" cy="234" r="2" fill="#A9C0FF"/>
<circle cx="38" cy="234" r="2" fill="#A9C0FF"/>
<circle cx="50" cy="234" r="2" fill="#A9C0FF"/>
<circle cx="62" cy="234" r="2" fill="#A9C0FF"/>
<circle cx="74" cy="234" r="2" fill="#A9C0FF"/>
<circle cx="86" cy="234" r="2" fill="#A9C0FF"/>
<circle cx="98" cy="234" r="2" fill="#A9C0FF"/>
<circle cx="110" cy="234" r="2" fill="#F5F8FF"/>
<circle cx="122" cy="234" r="2" fill="#F5F8FF"/>
<circle cx="134" cy="234" r="2" fill="#F5F8FF"/>
<circle cx="26" cy="246" r="2" fill="#A9C0FF"/>
<circle cx="38" cy="246" r="2" fill="#A9C0FF"/>
<circle cx="50" cy="246" r="2" fill="#A9C0FF"/>
<circle cx="62" cy="246" r="2" fill="#A9C0FF"/>
<circle cx="74" cy="246" r="2" fill="#A9C0FF"/>
<circle cx="86" cy="246" r="2" fill="#A9C0FF"/>
<circle cx="98" cy="246" r="2" fill="#A9C0FF"/>
<circle cx="110" cy="246" r="2" fill="#A9C0FF"/>
<circle cx="122" cy="246" r="2" fill="#A9C0FF"/>
<circle cx="134" cy="246" r="2" fill="#F5F8FF"/>
<circle cx="26" cy="258" r="2" fill="#A9C0FF"/>
<circle cx="38" cy="258" r="2" fill="#A9C0FF"/>
<circle cx="50" cy="258" r="2" fill="#A9C0FF"/>
<circle cx="62" cy="258" r="2" fill="#A9C0FF"/>
<circle cx="74" cy="258" r="2" fill="#A9C0FF"/>
<circle cx="86" cy="258" r="2" fill="#A9C0FF"/>
<circle cx="98" cy="258" r="2" fill="#A9C0FF"/>
<circle cx="110" cy="258" r="2" fill="#A9C0FF"/>
<circle cx="122" cy="258" r="2" fill="#A9C0FF"/>
<circle cx="134" cy="258" r="2" fill="#F5F8FF"/>
<circle cx="26" cy="270" r="2" fill="#A9C0FF"/>
<circle cx="38" cy="270" r="2" fill="#A9C0FF"/>
<circle cx="50" cy="270" r="2" fill="#A9C0FF"/>
<circle cx="62" cy="270" r="2" fill="#A9C0FF"/>
<circle cx="74" cy="270" r="2" fill="#A9C0FF"/>
<circle cx="86" cy="270" r="2" fill="#A9C0FF"/>
<circle cx="98" cy="270" r="2" fill="#A9C0FF"/>
<circle cx="110" cy="270" r="2" fill="#A9C0FF"/>
<circle cx="122" cy="270" r="2" fill="#A9C0FF"/>
<circle cx="134" cy="270" r="2" fill="#F5F8FF"/>
<circle cx="26" cy="282" r="2" fill="#A9C0FF"/>
<circle cx="38" cy="282" r="2" fill="#A9C0FF"/>
<circle cx="50" cy="282" r="2" fill="#A9C0FF"/>
<circle cx="62" cy="282" r="2" fill="#A9C0FF"/>
<circle cx="74" cy="282" r="2" fill="#A9C0FF"/>
<circle cx="86" cy="282" r="2" fill="#A9C0FF"/>
<circle cx="98" cy="282" r="2" fill="#A9C0FF"/>
<circle cx="110" cy="282" r="2" fill="#A9C0FF"/>
<circle cx="122" cy="282" r="2" fill="#2962FF"/>
<circle cx="134" cy="282" r="2" fill="#F5F8FF"/>
<circle cx="26" cy="294" r="2" fill="#A9C0FF"/>
<circle cx="38" cy="294" r="2" fill="#A9C0FF"/>
<circle cx="50" cy="294" r="2" fill="#A9C0FF"/>
<circle cx="62" cy="294" r="2" fill="#A9C0FF"/>
<circle cx="74" cy="294" r="2" fill="#A9C0FF"/>
<circle cx="86" cy="294" r="2" fill="#A9C0FF"/>
<circle cx="98" cy="294" r="2" fill="#A9C0FF"/>
<circle cx="110" cy="294" r="2" fill="#2962FF"/>
<circle cx="122" cy="294" r="2" fill="#A9C0FF"/>
<circle cx="134" cy="294" r="2" fill="#A9C0FF"/>
<circle cx="26" cy="306" r="2" fill="#A9C0FF"/>
<circle cx="38" cy="306" r="2" fill="#A9C0FF"/>
<circle cx="50" cy="306" r="2" fill="#A9C0FF"/>
<circle cx="62" cy="306" r="2" fill="#A9C0FF"/>
<circle cx="74" cy="306" r="2" fill="#A9C0FF"/>
<circle cx="86" cy="306" r="2" fill="#A9C0FF"/>
<circle cx="98" cy="306" r="2" fill="#A9C0FF"/>
<circle cx="110" cy="306" r="2" fill="#2962FF"/>
<circle cx="122" cy="306" r="2" fill="#A9C0FF"/>
<circle cx="134" cy="306" r="2" fill="#A9C0FF"/>
<circle cx="26" cy="318" r="2" fill="#A9C0FF"/>
<circle cx="38" cy="318" r="2" fill="#A9C0FF"/>
<circle cx="50" cy="318" r="2" fill="#A9C0FF"/>
<circle cx="62" cy="318" r="2" fill="#A9C0FF"/>
<circle cx="74" cy="318" r="2" fill="#A9C0FF"/>
<circle cx="86" cy="318" r="2" fill="#A9C0FF"/>
<circle cx="98" cy="318" r="2" fill="#A9C0FF"/>
<circle cx="110" cy="318" r="2" fill="#2962FF"/>
<circle cx="122" cy="318" r="2" fill="#A9C0FF"/>
<circle cx="134" cy="318" r="2" fill="#A9C0FF"/>
<circle cx="26" cy="330" r="2" fill="#A9C0FF"/>
<circle cx="38" cy="330" r="2" fill="#A9C0FF"/>
<circle cx="50" cy="330" r="2" fill="#2962FF"/>
<circle cx="62" cy="330" r="2" fill="#2962FF"/>
<circle cx="74" cy="330" r="2" fill="#2962FF"/>
<circle cx="86" cy="330" r="2" fill="#2962FF"/>
<circle cx="98" cy="330" r="2" fill="#2962FF"/>
<circle cx="110" cy="330" r="2" fill="#2962FF"/>
<circle cx="122" cy="330" r="2" fill="#A9C0FF"/>
<circle cx="134" cy="330" r="2" fill="#A9C0FF"/>
<circle cx="26" cy="342" r="2" fill="#F5F8FF"/>
<circle cx="38" cy="342" r="2" fill="#A9C0FF"/>
<circle cx="50" cy="342" r="2" fill="#A9C0FF"/>
<circle cx="62" cy="342" r="2" fill="#A9C0FF"/>
<circle cx="74" cy="342" r="2" fill="#A9C0FF"/>
<circle cx="86" cy="342" r="2" fill="#A9C0FF"/>
<circle cx="98" cy="342" r="2" fill="#A9C0FF"/>
<circle cx="110" cy="342" r="2" fill="#A9C0FF"/>
<circle cx="122" cy="342" r="2" fill="#A9C0FF"/>
<circle cx="134" cy="342" r="2" fill="#F5F8FF"/>
</g>
<path d="M56 48C56 43.5817 59.5817 40 64 40H476C480.418 40 484 43.5817 484 48V64H56V48Z" fill="#A9C0FF"/>
<path d="M56.5 64.5H483.5V304C483.5 308.142 480.142 311.5 476 311.5H64C59.8579 311.5 56.5 308.142 56.5 304V64.5Z" fill="#F5F8FF" stroke="#A9C0FF"/>
<rect x="96" y="80" width="132" height="112" rx="8" fill="#A9C0FF"/>
<rect x="252" y="80" width="192" height="27" rx="8" fill="#A9C0FF"/>
<rect x="252" y="123" width="192" height="16" rx="8" fill="#A9C0FF"/>
<rect x="252" y="147" width="192" height="16" rx="8" fill="#A9C0FF"/>
<rect x="252" y="171" width="192" height="16" rx="8" fill="#A9C0FF"/>
<g filter="url(#filter0_d)">
<rect x="121" y="88" width="298" height="200" rx="7" fill="white" stroke="#2962FF" stroke-width="2"/>
<rect x="175" y="111" width="190" height="16" rx="2" fill="#A9C0FF"/>
<rect x="212" y="137" width="116" height="8" rx="4" fill="#A9C0FF"/>
<rect x="153" y="218" width="14" height="14" rx="3" fill="#2962FF" stroke="#2962FF" stroke-width="2"/>
<rect x="348" y="257" width="56" height="16" rx="2" fill="#2962FF"/>
<rect x="176" y="169" width="69" height="8" rx="2" fill="#A9C0FF"/>
<rect x="176" y="193" width="159" height="8" rx="2" fill="#A9C0FF"/>
<rect x="176" y="217" width="102" height="8" rx="2" fill="#A9C0FF"/>
<rect x="176" y="181" width="132" height="4" rx="2" fill="#A9C0FF"/>
<rect x="176" y="205" width="130" height="4" rx="2" fill="#A9C0FF"/>
<rect x="176" y="229" width="116" height="4" rx="2" fill="#A9C0FF"/>
<rect x="153" y="170" width="14" height="14" rx="3" fill="#2962FF" stroke="#2962FF" stroke-width="2"/>
<rect x="153" y="194" width="14" height="14" rx="3" fill="#2962FF" stroke="#2962FF" stroke-width="2"/>
<path d="M156 177.5L158.667 180L164 175" stroke="white" stroke-width="2" stroke-linecap="round" stroke-linejoin="round"/>
<path d="M156 201.5L158.667 204L164 199" stroke="white" stroke-width="2" stroke-linecap="round" stroke-linejoin="round"/>
<path d="M156 225.5L158.667 228L164 223" stroke="white" stroke-width="2" stroke-linecap="round" stroke-linejoin="round"/>
</g>
<g filter="url(#filter1_d)">
<rect x="28" y="224" width="56" height="56" rx="8" fill="#FFC629"/>
<path fill-rule="evenodd" clip-rule="evenodd" d="M46.3999 242.4C46.3999 241.551 46.737 240.737 47.3372 240.137C47.9373 239.537 48.7512 239.2 49.5999 239.2H56.9375C57.7861 239.2 58.5999 239.537 59.1999 240.138L64.6623 245.6C65.2625 246.2 65.5997 247.014 65.5999 247.862V261.6C65.5999 262.449 65.2628 263.263 64.6626 263.863C64.0625 264.463 63.2486 264.8 62.3999 264.8H49.5999C48.7512 264.8 47.9373 264.463 47.3372 263.863C46.737 263.263 46.3999 262.449 46.3999 261.6V242.4ZM49.5999 252C49.5999 251.576 49.7685 251.169 50.0685 250.869C50.3686 250.569 50.7756 250.4 51.1999 250.4H60.7999C61.2242 250.4 61.6312 250.569 61.9313 250.869C62.2313 251.169 62.3999 251.576 62.3999 252C62.3999 252.424 62.2313 252.831 61.9313 253.131C61.6312 253.431 61.2242 253.6 60.7999 253.6H51.1999C50.7756 253.6 50.3686 253.431 50.0685 253.131C49.7685 252.831 49.5999 252.424 49.5999 252ZM51.1999 256.8C50.7756 256.8 50.3686 256.969 50.0685 257.269C49.7685 257.569 49.5999 257.976 49.5999 258.4C49.5999 258.824 49.7685 259.231 50.0685 259.531C50.3686 259.831 50.7756 260 51.1999 260H60.7999C61.2242 260 61.6312 259.831 61.9313 259.531C62.2313 259.231 62.3999 258.824 62.3999 258.4C62.3999 257.976 62.2313 257.569 61.9313 257.269C61.6312 256.969 61.2242 256.8 60.7999 256.8H51.1999Z" fill="white"/>
</g>
<g filter="url(#filter2_d)">
<rect x="460" y="88" width="80" height="80" rx="8" fill="#FF5B29"/>
<path d="M507.267 131.333C507.4 130.233 507.5 129.133 507.5 128C507.5 126.867 507.4 125.767 507.267 124.667H512.9C513.167 125.733 513.333 126.85 513.333 128C513.333 129.15 513.167 130.267 512.9 131.333H507.267ZM504.317 140.6C505.317 138.75 506.083 136.75 506.617 134.667H511.533C509.919 137.447 507.357 139.553 504.317 140.6ZM503.9 131.333H496.1C495.933 130.233 495.833 129.133 495.833 128C495.833 126.867 495.933 125.75 496.1 124.667H503.9C504.05 125.75 504.167 126.867 504.167 128C504.167 129.133 504.05 130.233 503.9 131.333ZM500 141.267C498.617 139.267 497.5 137.05 496.817 134.667H503.183C502.5 137.05 501.383 139.267 500 141.267ZM493.333 121.333H488.467C490.065 118.545 492.625 116.436 495.667 115.4C494.667 117.25 493.917 119.25 493.333 121.333ZM488.467 134.667H493.333C493.917 136.75 494.667 138.75 495.667 140.6C492.631 139.553 490.075 137.446 488.467 134.667ZM487.1 131.333C486.833 130.267 486.667 129.15 486.667 128C486.667 126.85 486.833 125.733 487.1 124.667H492.733C492.6 125.767 492.5 126.867 492.5 128C492.5 129.133 492.6 130.233 492.733 131.333H487.1ZM500 114.717C501.383 116.717 502.5 118.95 503.183 121.333H496.817C497.5 118.95 498.617 116.717 500 114.717ZM511.533 121.333H506.617C506.095 119.269 505.323 117.276 504.317 115.4C507.383 116.45 509.933 118.567 511.533 121.333ZM500 111.333C490.783 111.333 483.333 118.833 483.333 128C483.333 132.42 485.089 136.659 488.215 139.785C489.763 141.333 491.6 142.56 493.622 143.398C495.644 144.235 497.811 144.667 500 144.667C504.42 144.667 508.66 142.911 511.785 139.785C514.911 136.659 516.667 132.42 516.667 128C516.667 125.811 516.236 123.644 515.398 121.622C514.561 119.6 513.333 117.762 511.785 116.215C510.238 114.667 508.4 113.44 506.378 112.602C504.356 111.764 502.189 111.333 500 111.333Z" fill="white"/>
</g>
<defs>
<filter id="filter0_d" x="96" y="67" width="348" height="250" filterUnits="userSpaceOnUse" color-interpolation-filters="sRGB">
<feFlood flood-opacity="0" result="BackgroundImageFix"/>
<feColorMatrix in="SourceAlpha" type="matrix" values="0 0 0 0 0 0 0 0 0 0 0 0 0 0 0 0 0 0 127 0"/>
<feOffset dy="4"/>
<feGaussianBlur stdDeviation="12"/>
<feColorMatrix type="matrix" values="0 0 0 0 0.0705882 0 0 0 0 0.0705882 0 0 0 0 0.0705882 0 0 0 0.16 0"/>
<feBlend mode="normal" in2="BackgroundImageFix" result="effect1_dropShadow"/>
<feBlend mode="normal" in="SourceGraphic" in2="effect1_dropShadow" result="shape"/>
</filter>
<filter id="filter1_d" x="12" y="216" width="88" height="88" filterUnits="userSpaceOnUse" color-interpolation-filters="sRGB">
<feFlood flood-opacity="0" result="BackgroundImageFix"/>
<feColorMatrix in="SourceAlpha" type="matrix" values="0 0 0 0 0 0 0 0 0 0 0 0 0 0 0 0 0 0 127 0"/>
<feOffset dy="8"/>
<feGaussianBlur stdDeviation="8"/>
<feColorMatrix type="matrix" values="0 0 0 0 0.0705882 0 0 0 0 0.0705882 0 0 0 0 0.0705882 0 0 0 0.16 0"/>
<feBlend mode="normal" in2="BackgroundImageFix" result="effect1_dropShadow"/>
<feBlend mode="normal" in="SourceGraphic" in2="effect1_dropShadow" result="shape"/>
</filter>
<filter id="filter2_d" x="444" y="80" width="112" height="112" filterUnits="userSpaceOnUse" color-interpolation-filters="sRGB">
<feFlood flood-opacity="0" result="BackgroundImageFix"/>
<feColorMatrix in="SourceAlpha" type="matrix" values="0 0 0 0 0 0 0 0 0 0 0 0 0 0 0 0 0 0 127 0"/>
<feOffset dy="8"/>
<feGaussianBlur stdDeviation="8"/>
<feColorMatrix type="matrix" values="0 0 0 0 0.0705882 0 0 0 0 0.0705882 0 0 0 0 0.0705882 0 0 0 0.24 0"/>
<feBlend mode="normal" in2="BackgroundImageFix" result="effect1_dropShadow"/>
<feBlend mode="normal" in="SourceGraphic" in2="effect1_dropShadow" result="shape"/>
</filter>
</defs>
</svg>
